<svg width="45" height="45" viewBox="0 0 45 45" fill="none" xmlns="http://www.w3.org/2000/svg">
<g clip-path="url(#clip0_367_11)">
<path d="M44.994 7.56313C44.994 17.5206 44.994 27.4791 44.994 37.4366C44.844 37.5795 44.9295 37.7694 44.8955 37.9358C44.217 41.1924 42.3573 43.4295 39.2049 44.5686C38.6284 44.7772 38.0178 44.8159 37.4377 44.9928C27.4791 44.9928 17.5217 44.9928 7.56313 44.9928C7.49868 44.9647 7.43657 44.9178 7.36977 44.9096C4.02173 44.5428 1.07094 41.9471 0.270554 38.6588C0.172116 38.2545 0.0936005 37.8444 0.00688171 37.4366C0.00688171 27.4791 0.00688171 17.5206 0.00688171 7.56313C0.0338348 7.51274 0.079538 7.46469 0.0842255 7.41313C0.202585 6.21782 0.585788 5.11157 1.21743 4.09438C2.3893 2.21001 4.01352 0.915085 6.1768 0.339694C6.63618 0.217819 7.10141 0.117038 7.56313 0.00688171C17.5217 0.00688171 27.4791 0.00688171 37.4377 0.00688171C37.5022 0.0350067 37.5643 0.0818817 37.6311 0.0900848C40.9827 0.458054 43.9288 3.04907 44.7303 6.34087C44.8288 6.74633 44.9061 7.15532 44.994 7.56313ZM14.0659 25.1026C14.0659 26.9764 14.0647 28.8502 14.0659 30.7241C14.067 32.5639 15.2448 33.7452 17.0799 33.7463C20.6952 33.7475 24.3116 33.7475 27.9268 33.7463C29.7608 33.7452 30.935 32.5639 30.9362 30.7182C30.9373 27.0737 30.935 23.428 30.9397 19.7834C30.9397 19.4518 30.8002 19.044 31.01 18.8096C31.194 18.6034 31.5936 18.7709 31.8959 18.737C31.91 18.7358 31.9252 18.7358 31.9393 18.7346C32.4397 18.6913 32.7795 18.3397 32.7948 17.8499C32.81 17.3424 32.4748 16.9416 31.9686 16.8877C31.7518 16.8643 31.5291 16.8643 31.3112 16.8819C31.0452 16.903 30.942 16.835 30.9209 16.5327C30.7123 13.5256 28.2948 11.2674 25.2877 11.2557C23.4877 11.2487 21.6866 11.2534 19.8866 11.2545C16.7038 11.2569 14.3436 13.4155 14.0776 16.5819C14.0588 16.8022 14.0096 16.8971 13.7752 16.8819C13.528 16.8655 13.276 16.8631 13.0299 16.8889C12.5295 16.9416 12.1909 17.353 12.2096 17.8569C12.2272 18.3467 12.5682 18.6983 13.0709 18.7346C13.2608 18.7475 13.4541 18.7616 13.6405 18.737C13.9944 18.6913 14.0788 18.8342 14.0764 19.1752C14.0577 21.1499 14.0659 23.1268 14.0659 25.1026Z" fill="#FB573B" fill-opacity="0.2"/>
<path d="M22.5057 16.876C20.4725 16.876 18.4393 16.8666 16.4073 16.8842C16.0264 16.8877 15.9034 16.8233 15.9666 16.4038C16.2549 14.5159 17.7432 13.153 19.6651 13.1237C21.5518 13.0944 23.4385 13.0956 25.3252 13.1237C27.2811 13.1518 28.7893 14.5452 29.0448 16.4811C29.087 16.7975 29.0108 16.8842 28.692 16.8819C26.6307 16.8702 24.5682 16.876 22.5057 16.876ZM22.4752 15.8952C23.3975 15.8952 24.3186 15.8987 25.2409 15.894C25.8327 15.8905 26.1748 15.5741 26.1877 15.0374C26.2006 14.4725 25.8596 14.0975 25.2713 14.094C23.428 14.0823 21.5846 14.0834 19.7413 14.094C19.1506 14.0975 18.8061 14.4678 18.8166 15.0303C18.826 15.5682 19.1682 15.8905 19.7553 15.894C20.66 15.8987 21.567 15.8952 22.4752 15.8952Z" fill="#FB573B" fill-opacity="0.2"/>
<path d="M14.066 25.1027C14.066 23.127 14.0578 21.15 14.073 19.1742C14.0754 18.8332 13.991 18.6902 13.6371 18.7359C13.4508 18.7605 13.2563 18.7465 13.0676 18.7336C12.5648 18.6984 12.2238 18.3457 12.2063 17.8559C12.1887 17.352 12.5262 16.9406 13.0266 16.8879C13.2727 16.8621 13.5246 16.8645 13.7719 16.8809C14.0063 16.8961 14.0555 16.8012 14.0742 16.5809C14.3414 13.4156 16.7004 11.2559 19.8832 11.2535C21.6832 11.2523 23.4844 11.2477 25.2844 11.2547C28.2914 11.2664 30.709 13.5246 30.9176 16.5316C30.9387 16.834 31.0418 16.9008 31.3078 16.8809C31.5258 16.8645 31.7484 16.8645 31.9652 16.8867C32.4715 16.9406 32.8066 17.3414 32.7914 17.8488C32.7762 18.3387 32.4363 18.6902 31.9359 18.7336C31.9219 18.7348 31.9066 18.7348 31.8926 18.7359C31.5902 18.7699 31.1906 18.6023 31.0066 18.8086C30.7969 19.0441 30.9363 19.452 30.9363 19.7824C30.9305 23.427 30.934 27.0727 30.9328 30.7172C30.9316 32.5617 29.7574 33.7441 27.9234 33.7453C24.3082 33.7465 20.6918 33.7465 17.0766 33.7453C15.2414 33.7441 14.0648 32.5629 14.0625 30.723C14.0648 28.8504 14.066 26.9766 14.066 25.1027ZM22.5059 16.8762C24.5684 16.8762 26.6297 16.8703 28.6922 16.882C29.0098 16.8844 29.0871 16.7977 29.0449 16.4813C28.7883 14.5465 27.2813 13.152 25.3254 13.1238C23.4387 13.0969 21.552 13.0957 19.6652 13.1238C17.7434 13.1531 16.2551 14.516 15.9668 16.4039C15.9023 16.8234 16.0266 16.8867 16.4074 16.8844C18.4406 16.868 20.4738 16.8762 22.5059 16.8762Z" fill="#FB573B"/>
<path d="M22.4754 15.8953C21.5684 15.8953 20.6613 15.9 19.7543 15.8941C19.166 15.8906 18.825 15.5695 18.8156 15.0305C18.8051 14.4691 19.1496 14.0977 19.7402 14.0941C21.5836 14.0836 23.427 14.0836 25.2703 14.0941C25.8586 14.0977 26.1996 14.4727 26.1867 15.0375C26.1738 15.573 25.8316 15.8906 25.2398 15.8941C24.3188 15.8988 23.3965 15.8953 22.4754 15.8953Z" fill="#FB573B"/>
</g>
<defs>
<clipPath id="clip0_367_11">
<rect width="45" height="45" fill="white"/>
</clipPath>
</defs>
</svg>
