<svg width="40" height="40" viewBox="0 0 40 40" fill="none" xmlns="http://www.w3.org/2000/svg">
<path d="M0 18.983C0 15.6972 0 12.4113 0 9.12446C0.0229167 9.0504 0.0552083 8.97842 0.0677083 8.90332C0.641667 5.2597 3.50729 2.8042 7.19271 2.80107C8.71563 2.80003 10.2385 2.80107 11.7615 2.80107C18.8031 2.80107 25.8448 2.79794 32.8865 2.80211C36.2312 2.8042 39.0198 4.98953 39.8063 8.21173C39.8802 8.51319 39.9365 8.81987 40 9.12446C40 12.4103 40 15.6961 40 18.983C39.9792 19.0289 39.9437 19.0727 39.9385 19.1207C39.5656 22.4242 36.6344 25.3648 32.7365 25.2678C31.2656 25.2313 29.7937 25.2615 28.3229 25.2615C27.2625 25.2615 27.0323 25.4222 26.6406 26.4173C25.524 29.2504 24.4052 32.0825 23.2885 34.9156C22.9323 35.8179 22.3271 36.4897 21.4406 36.885C19.5792 37.7153 17.4896 36.8506 16.7177 34.9145C15.5802 32.0616 14.4615 29.2014 13.3354 26.3443C12.9823 25.4503 12.7083 25.2626 11.7583 25.2615C10.1312 25.2605 8.50313 25.2824 6.87604 25.2521C3.66354 25.1927 0.94375 22.9813 0.191667 19.8519C0.119792 19.564 0.0625 19.273 0 18.983ZM12.0687 17.9868C14.2615 17.968 16.0615 17.1387 17.5396 15.5772C18.1177 14.9659 18.1167 14.3317 17.5187 13.7257C16.9802 13.178 16.4344 12.6377 15.8917 12.0942C12.7302 8.93044 8.17083 8.98468 5.07604 12.2225C4.56042 12.7618 4.54896 13.4273 5.06979 13.9593C5.74375 14.6478 6.41667 15.3383 7.11771 15.9986C8.51354 17.3161 10.1844 17.9649 12.0687 17.9868ZM27.8573 17.9858C29.649 17.9712 31.2198 17.4423 32.5344 16.3001C33.3979 15.5501 34.1875 14.7145 34.9865 13.8946C35.4354 13.4336 35.4167 12.7858 34.999 12.3008C32.3323 9.20061 27.5635 8.90436 24.5531 11.6697C23.7969 12.3644 23.0833 13.1092 22.3677 13.8467C21.9104 14.3182 21.9146 14.9847 22.3594 15.4687C23.8521 17.0918 25.6833 17.9732 27.8573 17.9858Z" fill="url(#paint0_linear_359_2)"/>
<path d="M7.60104 13.1332C9.57917 11.2952 12.8458 11.9419 15.0552 14.6081C13.2479 16.4805 9.63333 15.765 7.60104 13.1332Z" fill="url(#paint1_linear_359_2)"/>
<path d="M24.9104 14.6384C25.926 13.5254 26.9437 12.4937 28.4771 12.2131C29.9198 11.9492 31.225 12.2465 32.4312 13.1133C31.3812 14.3015 30.2885 15.3581 28.6542 15.5824C27.2969 15.767 26.0521 15.4812 24.9104 14.6384Z" fill="url(#paint2_linear_359_2)"/>
<defs>
<linearGradient id="paint0_linear_359_2" x1="3.53093" y1="32.4876" x2="37.0704" y2="12.216" gradientUnits="userSpaceOnUse">
<stop stop-color="#95EADE"/>
<stop offset="0.0868788" stop-color="#34FF9D"/>
<stop offset="0.1997" stop-color="#37EDAA"/>
<stop offset="0.8584" stop-color="#41B0D7"/>
<stop offset="1" stop-color="#4598E9"/>
</linearGradient>
<linearGradient id="paint1_linear_359_2" x1="3.53093" y1="32.4876" x2="37.0704" y2="12.216" gradientUnits="userSpaceOnUse">
<stop stop-color="#95EADE"/>
<stop offset="0.0868788" stop-color="#34FF9D"/>
<stop offset="0.1997" stop-color="#37EDAA"/>
<stop offset="0.8584" stop-color="#41B0D7"/>
<stop offset="1" stop-color="#4598E9"/>
</linearGradient>
<linearGradient id="paint2_linear_359_2" x1="3.53093" y1="32.4876" x2="37.0704" y2="12.216" gradientUnits="userSpaceOnUse">
<stop stop-color="#95EADE"/>
<stop offset="0.0868788" stop-color="#34FF9D"/>
<stop offset="0.1997" stop-color="#37EDAA"/>
<stop offset="0.8584" stop-color="#41B0D7"/>
<stop offset="1" stop-color="#4598E9"/>
</linearGradient>
</defs>
</svg>
