<svg width="45" height="45" viewBox="0 0 45 45" fill="none" xmlns="http://www.w3.org/2000/svg">
<g clip-path="url(#clip0_367_25)">
<path d="M44.9937 7.56284C44.9937 17.5208 44.9937 27.4789 44.9937 37.436C44.8416 37.5792 44.9304 37.7691 44.8961 37.9352C44.2229 41.1968 42.3543 43.4275 39.2043 44.5674C38.6278 44.7766 38.0178 44.8144 37.4377 44.9919C27.4797 44.9919 17.5217 44.9919 7.56372 44.9919C7.42046 44.8399 7.23061 44.9287 7.0645 44.8944C3.80727 44.2159 1.57046 42.3552 0.431393 39.2026C0.223093 38.626 0.184421 38.0161 0.00688171 37.436C0.00688171 27.478 0.00688171 17.52 0.00688171 7.56284C0.0358856 7.49868 0.0833466 7.43628 0.0903778 7.36948C0.445456 4.03403 3.05581 1.06684 6.34204 0.270554C6.74721 0.172116 7.15678 0.0938934 7.56372 0.00688171C17.5217 0.00688171 27.4797 0.00688171 37.4377 0.00688171C37.581 0.158932 37.7708 0.070163 37.937 0.10444C41.1995 0.776804 43.4284 2.64624 44.5701 5.79624C44.7784 6.3728 44.817 6.98276 44.9937 7.56284ZM11.2534 14.9966C11.2534 15.9335 11.2525 16.8705 11.2534 17.8074C11.2542 18.5175 11.4784 18.7575 12.1999 18.761C14.0887 18.7698 15.9766 18.7645 17.8654 18.7627C18.2205 18.7627 18.5509 18.6889 18.6915 18.3127C18.8251 17.9533 18.6792 17.6676 18.4147 17.4101C17.7863 16.7966 17.179 16.1612 16.5444 15.5539C16.3317 15.3499 16.3668 15.2515 16.5848 15.0942C18.7056 13.5614 21.0734 12.8793 23.6635 13.2116C28.98 13.8927 32.5352 18.6819 31.7398 24.0001C30.8433 29.9916 24.2155 33.5811 18.7012 31.0657C17.665 30.5928 16.7386 29.9679 15.9248 29.1707C15.6488 28.9 15.3227 28.7603 14.9254 28.8983C14.5563 29.0266 14.3471 29.2876 14.2856 29.6638C14.2197 30.0716 14.4376 30.3617 14.7154 30.6192C17.3934 33.0995 20.5557 34.1506 24.161 33.6198C30.6271 32.6679 34.9065 26.3864 33.4783 20.0451C32.3111 14.8622 27.6854 11.1936 22.3803 11.2569C19.8289 11.2876 17.5296 12.0892 15.4721 13.5913C14.9632 13.963 14.9659 13.9665 14.5088 13.5104C13.8567 12.8582 13.2028 12.2079 12.5524 11.554C12.3072 11.307 12.0373 11.1637 11.6875 11.3131C11.343 11.4608 11.2472 11.7456 11.2499 12.098C11.2586 13.0648 11.2534 14.0307 11.2534 14.9966Z" fill="#28C6D9" fill-opacity="0.2"/>
<path d="M11.2535 14.9968C11.2535 14.0309 11.2588 13.0641 11.2509 12.0982C11.2483 11.7457 11.3441 11.4609 11.6886 11.3133C12.0375 11.163 12.3082 11.3071 12.5534 11.5541C13.2038 12.208 13.8577 12.8584 14.5099 13.5106C14.9669 13.9667 14.9634 13.9632 15.4732 13.5914C17.5307 12.0894 19.8299 11.2878 22.3814 11.257C27.6864 11.1938 32.3121 14.8623 33.4793 20.0452C34.9075 26.3865 30.629 32.6681 24.162 33.6199C20.5568 34.1508 17.3944 33.0996 14.7164 30.6193C14.4387 30.3618 14.2207 30.0718 14.2866 29.664C14.3473 29.2869 14.5573 29.0259 14.9265 28.8984C15.3237 28.7605 15.6498 28.9002 15.9258 29.1709C16.7397 29.9672 17.666 30.593 18.7023 31.0658C24.2165 33.5813 30.8444 29.9918 31.7408 24.0003C32.5371 18.682 28.9811 13.8938 23.6646 13.2117C21.0744 12.8795 18.7067 13.5624 16.5859 15.0943C16.3679 15.2517 16.3327 15.3501 16.5454 15.554C17.18 16.1613 17.7873 16.7968 18.4157 17.4103C18.6794 17.6678 18.8262 17.9534 18.6926 18.3129C18.5528 18.6891 18.2224 18.762 17.8664 18.7629C15.9776 18.7638 14.0898 18.7691 12.201 18.7611C11.4794 18.7576 11.2562 18.5186 11.2544 17.8075C11.2527 16.8706 11.2535 15.9337 11.2535 14.9968Z" fill="#28C6D9"/>
</g>
<defs>
<clipPath id="clip0_367_25">
<rect width="45" height="45" fill="white"/>
</clipPath>
</defs>
</svg>
