<svg width="45" height="45" viewBox="0 0 45 45" fill="none" xmlns="http://www.w3.org/2000/svg">
<g clip-path="url(#clip0_367_65)">
<path d="M0.00686646 37.4366C0.00686646 27.4791 0.00686646 17.5206 0.00686646 7.56313C0.0349915 7.49868 0.0830383 7.43657 0.0900696 7.36977C0.447491 4.0311 3.05374 1.06743 6.34202 0.270554C6.74632 0.172116 7.15648 0.0936005 7.56429 0.00688171C17.5229 0.00688171 27.4803 0.00688171 37.4389 0.00688171C37.5819 0.158054 37.7717 0.070163 37.9381 0.104147C41.2006 0.776804 43.4295 2.64594 44.5709 5.79594C44.7795 6.37251 44.8182 6.98305 44.9951 7.56313C44.9951 17.5206 44.9951 27.4791 44.9951 37.4366C44.844 37.5795 44.9319 37.7694 44.8979 37.9358C44.2252 41.1971 42.3561 43.4272 39.2061 44.5686C38.6295 44.7772 38.019 44.8159 37.4389 44.9928C27.4803 44.9928 17.5229 44.9928 7.56429 44.9928C7.10023 44.892 6.62679 44.8229 6.17444 44.6834C3.36663 43.8209 1.44476 42.0209 0.443976 39.2448C0.229523 38.6553 0.182648 38.0319 0.00686646 37.4366ZM33.7475 22.5209C33.7475 19.6358 33.7533 16.7518 33.7451 13.8678C33.7416 12.4721 32.6799 11.3401 31.3463 11.2534C31.0205 11.2323 30.9233 11.3143 30.9268 11.653C30.9455 13.2631 30.9373 14.8745 30.9338 16.4846C30.9315 17.6178 30.2658 18.2823 29.128 18.2834C26.5944 18.2858 24.0619 18.2858 21.5284 18.2834C20.3354 18.2823 19.6885 17.6319 19.6885 16.4319C19.6873 14.8358 19.6897 13.2397 19.685 11.6436C19.685 11.476 19.7729 11.2651 19.4436 11.2475C18.4311 11.1924 17.5569 11.4198 16.8162 12.185C15.2893 13.7635 13.726 15.3069 12.1604 16.8479C11.5381 17.4608 11.2428 18.1674 11.2463 19.0428C11.2592 23.0108 11.251 26.9788 11.2522 30.9467C11.2522 32.6752 12.3174 33.7463 14.0377 33.7463C19.6756 33.7475 25.3123 33.7475 30.9502 33.7463C32.6776 33.7463 33.744 32.6811 33.7451 30.9549C33.7487 28.1436 33.7475 25.3323 33.7475 22.5209ZM24.3643 14.0366C24.3643 14.8709 24.3701 15.7053 24.3608 16.5397C24.3584 16.7682 24.3983 16.8842 24.669 16.8819C26.1619 16.8702 27.6561 16.8737 29.1491 16.8795C29.435 16.8807 29.5346 16.7565 29.5334 16.4811C29.5276 14.8416 29.5252 13.2022 29.5358 11.5616C29.5369 11.3002 29.442 11.2475 29.2053 11.2487C27.6971 11.2581 26.1889 11.2581 24.6819 11.2487C24.4276 11.2475 24.3573 11.3342 24.3608 11.578C24.3713 12.3971 24.3643 13.2174 24.3643 14.0366ZM22.9592 14.0635C22.9592 13.2444 22.951 12.4252 22.9639 11.6061C22.9674 11.3541 22.9159 11.2323 22.6287 11.2475C22.2209 11.2698 21.8096 11.2616 21.4006 11.2499C21.1862 11.244 21.0877 11.292 21.0901 11.5358C21.0994 13.1893 21.0983 14.8416 21.0924 16.4952C21.0912 16.7811 21.2155 16.8877 21.492 16.8784C21.8424 16.8678 22.1951 16.8561 22.5444 16.8819C22.8619 16.9053 22.9791 16.8186 22.9686 16.4764C22.9416 15.6737 22.9592 14.8686 22.9592 14.0635Z" fill="#FED100" fill-opacity="0.2"/>
<path d="M33.7477 22.5211C33.7477 25.3324 33.7488 28.1438 33.7477 30.9551C33.7465 32.6813 32.6801 33.7465 30.9527 33.7465C25.3148 33.7477 19.6781 33.7477 14.0402 33.7465C12.3199 33.7465 11.2547 32.6742 11.2547 30.9469C11.2535 26.9789 11.2617 23.011 11.2488 19.043C11.2465 18.1688 11.5406 17.461 12.1629 16.8481C13.7285 15.307 15.2918 13.7637 16.8187 12.1852C17.5594 11.4199 18.4324 11.1926 19.4461 11.2477C19.7754 11.2652 19.6875 11.4762 19.6875 11.6438C19.6922 13.2399 19.6898 14.836 19.691 16.432C19.6922 17.632 20.3379 18.2824 21.5309 18.2836C24.0645 18.2848 26.5969 18.286 29.1305 18.2836C30.2684 18.2824 30.934 17.618 30.9363 16.4848C30.9398 14.8746 30.948 13.2633 30.9293 11.6531C30.9258 11.3145 31.023 11.2324 31.3488 11.2535C32.6812 11.3414 33.743 12.4723 33.7477 13.868C33.7523 16.752 33.7477 19.636 33.7477 22.5211ZM22.4789 30.9352C24.6902 30.9352 26.9004 30.9363 29.1117 30.9352C30.2754 30.934 30.9352 30.2766 30.9363 29.1141C30.9387 27.1957 30.9387 25.2785 30.9363 23.3602C30.9352 22.2317 30.2637 21.5555 29.1328 21.5543C24.7113 21.5508 20.2898 21.5508 15.8684 21.5543C14.7375 21.5555 14.0672 22.2328 14.066 23.3613C14.0637 25.2797 14.0637 27.1969 14.066 29.1152C14.0672 30.2778 14.7246 30.934 15.8906 30.9352C18.0867 30.9363 20.2828 30.9352 22.4789 30.9352Z" fill="#FED100"/>
<path d="M24.3645 14.0367C24.3645 13.2164 24.3715 12.3973 24.3598 11.577C24.3562 11.3332 24.4266 11.2465 24.6809 11.2477C26.1891 11.2582 27.6973 11.257 29.2043 11.2477C29.4422 11.2465 29.5371 11.2992 29.5348 11.5606C29.5242 13.2 29.5266 14.8395 29.5324 16.4801C29.5336 16.7555 29.434 16.8797 29.148 16.8785C27.6551 16.8727 26.1609 16.8703 24.668 16.8809C24.3984 16.8832 24.3574 16.7672 24.3598 16.5387C24.3703 15.7055 24.3645 14.8711 24.3645 14.0367Z" fill="#FED100"/>
<path d="M22.9594 14.0637C22.9594 14.8688 22.9418 15.6738 22.9676 16.4777C22.9793 16.8199 22.8609 16.9067 22.5434 16.8832C22.1941 16.8574 21.8414 16.8692 21.491 16.8797C21.2156 16.8879 21.0914 16.7824 21.0914 16.4965C21.0973 14.843 21.0984 13.1906 21.0891 11.5371C21.0879 11.2922 21.1852 11.2442 21.3996 11.2512C21.8086 11.2629 22.2199 11.2711 22.6277 11.2488C22.9137 11.2324 22.9664 11.3555 22.9629 11.6074C22.9523 12.4254 22.9594 13.2445 22.9594 14.0637Z" fill="#FED100"/>
<path d="M22.4789 30.9352C20.2828 30.9352 18.0867 30.9363 15.8906 30.9352C14.7246 30.934 14.0672 30.2777 14.066 29.1152C14.0648 27.1969 14.0637 25.2797 14.066 23.3613C14.0672 22.2316 14.7375 21.5543 15.8684 21.5543C20.2898 21.5508 24.7113 21.5508 29.1328 21.5543C30.2637 21.5555 30.9352 22.2316 30.9363 23.3602C30.9387 25.2785 30.9387 27.1957 30.9363 29.1141C30.9352 30.2766 30.2766 30.9352 29.1117 30.9352C26.9004 30.9363 24.6902 30.9352 22.4789 30.9352ZM22.4754 29.5289C24.641 29.5289 26.8066 29.5207 28.9711 29.5359C29.3766 29.5395 29.543 29.4422 29.5383 28.9992C29.5172 27.1711 29.5207 25.3418 29.5359 23.5125C29.5395 23.0988 29.3988 22.9395 28.977 22.9406C24.6609 22.95 20.3449 22.95 16.0289 22.9406C15.6117 22.9395 15.4617 23.0883 15.4652 23.5078C15.4805 25.3359 15.484 27.1652 15.4629 28.9945C15.4582 29.4293 15.6117 29.5395 16.0242 29.5371C18.1746 29.5195 20.325 29.5289 22.4754 29.5289Z" fill="#FED100" fill-opacity="0.3"/>
<path d="M22.4754 29.5289C20.325 29.5289 18.1734 29.5195 16.023 29.5371C15.6105 29.5406 15.457 29.4305 15.4617 28.9945C15.4828 27.1664 15.4793 25.3371 15.4641 23.5078C15.4605 23.0883 15.6105 22.9395 16.0277 22.9406C20.3437 22.95 24.6598 22.95 28.9758 22.9406C29.3976 22.9395 29.5383 23.0988 29.5348 23.5125C29.5207 25.3406 29.516 27.1699 29.5371 28.9992C29.5418 29.441 29.3754 29.5383 28.9699 29.5359C26.8066 29.5207 24.641 29.5289 22.4754 29.5289ZM21.5789 26.7176C20.2922 26.7176 19.0043 26.7152 17.7176 26.7188C17.1867 26.7199 16.8879 26.9707 16.8785 27.4055C16.8691 27.8567 17.1785 28.1227 17.7305 28.1227C20.2758 28.125 22.8199 28.125 25.3652 28.1227C25.8844 28.1227 26.2535 27.8203 26.2488 27.4137C26.2441 27.007 25.8785 26.7199 25.3523 26.7188C24.0949 26.7164 22.8363 26.7176 21.5789 26.7176ZM20.1726 25.7578C21.007 25.7578 21.8414 25.7555 22.6758 25.759C23.0578 25.7613 23.3262 25.6149 23.4211 25.2234C23.5371 24.7453 23.1551 24.3586 22.5387 24.3539C21.2508 24.3457 19.9629 24.3516 18.675 24.3516C18.3094 24.3516 17.9414 24.334 17.5781 24.3598C17.1867 24.3879 16.8726 24.7324 16.8797 25.0758C16.8891 25.4824 17.1762 25.752 17.6273 25.7543C18.4746 25.7613 19.323 25.7578 20.1726 25.7578Z" fill="#FED100"/>
<path d="M21.5789 26.7176C22.8363 26.7176 24.0949 26.7164 25.3523 26.7188C25.8785 26.7199 26.2441 27.007 26.2488 27.4137C26.2535 27.8203 25.8855 28.1215 25.3652 28.1227C22.8199 28.125 20.2758 28.125 17.7305 28.1227C17.1785 28.1227 16.8691 27.8567 16.8785 27.4055C16.8879 26.9707 17.1867 26.7199 17.7176 26.7188C19.0043 26.7152 20.2922 26.7176 21.5789 26.7176Z" fill="#FED100" fill-opacity="0.3"/>
<path d="M20.1726 25.7578C19.3242 25.7578 18.4746 25.7613 17.6262 25.7567C17.175 25.7543 16.8879 25.4848 16.8785 25.0781C16.8715 24.7336 17.1855 24.3891 17.5769 24.3621C17.9414 24.3363 18.3082 24.3539 18.6738 24.3539C19.9617 24.3539 21.2496 24.3481 22.5375 24.3563C23.1539 24.3598 23.5359 24.7477 23.4199 25.2258C23.325 25.6172 23.0566 25.7625 22.6746 25.7613C21.8402 25.7555 21.0058 25.7578 20.1726 25.7578Z" fill="#FED100" fill-opacity="0.3"/>
</g>
<defs>
<clipPath id="clip0_367_65">
<rect width="45" height="45" fill="white"/>
</clipPath>
</defs>
</svg>
