<svg width="100" height="100" viewBox="0 0 100 100" fill="none" xmlns="http://www.w3.org/2000/svg">
<g clip-path="url(#clip0_367_2)">
<path d="M100 39.8437C99.6849 41.763 99.513 43.7187 99.0286 45.5963C95.138 60.6745 85.6328 70.3516 70.4609 73.7292C52.0781 77.8229 34.1901 67.6901 27.6198 50.0729C20.862 31.9505 29.6953 11.0651 47.3932 3.27864C51.2656 1.57552 55.2865 0.497391 59.5052 0.156245C59.724 0.138016 59.9375 0.0520782 60.1536 -0.00260925C61.8464 -0.00260925 63.5391 -0.00260925 65.2318 -0.00260925C66.5104 0.187495 67.7891 0.364578 69.0651 0.567703C83.6901 2.91666 95.8984 14.4896 99.0364 29.013C99.4453 30.9088 99.6823 32.8437 99.9974 34.763C100 36.4583 100 38.151 100 39.8437ZM62.6536 63.6927C77.2578 63.7161 89.0417 51.9766 89.0729 37.375C89.1042 22.7656 77.3802 10.9792 62.776 10.9323C48.1354 10.8854 36.3203 22.6562 36.3125 37.3021C36.3021 51.901 48.0469 63.6693 62.6536 63.6927Z" fill="url(#paint0_linear_367_2)"/>
<path d="M0 93.3594C0.463542 91.7057 1.53385 90.487 2.72656 89.3021C10.7995 81.2708 18.8437 73.2109 26.8932 65.1562C27.1901 64.8594 27.4375 64.5104 27.625 64.2865C30.3385 67.0026 32.9505 69.6146 35.8203 72.4844C35.6484 72.5859 35.2578 72.724 34.9948 72.9844C26.9323 81.026 18.8724 89.0703 10.8385 97.1406C9.61198 98.375 8.36458 99.5182 6.64323 99.9974C5.99219 99.9974 5.34115 99.9974 4.6901 99.9974C3.61719 99.3854 2.40625 98.9271 1.51823 98.1146C0.809896 97.4687 0.492187 96.3906 0.00260417 95.5052C0 94.7917 0 94.0755 0 93.3594Z" fill="url(#paint1_linear_367_2)"/>
</g>
<defs>
<linearGradient id="paint0_linear_367_2" x1="113.372" y1="37.2093" x2="18.205" y2="113.434" gradientUnits="userSpaceOnUse">
<stop stop-color="#95EADE"/>
<stop offset="0.0868788" stop-color="#34FF9D"/>
<stop offset="0.1997" stop-color="#37EDAA"/>
<stop offset="0.8584" stop-color="#41B0D7"/>
<stop offset="1" stop-color="#4598E9"/>
</linearGradient>
<linearGradient id="paint1_linear_367_2" x1="113.372" y1="37.2093" x2="18.205" y2="113.434" gradientUnits="userSpaceOnUse">
<stop stop-color="#95EADE"/>
<stop offset="0.0868788" stop-color="#34FF9D"/>
<stop offset="0.1997" stop-color="#37EDAA"/>
<stop offset="0.8584" stop-color="#41B0D7"/>
<stop offset="1" stop-color="#4598E9"/>
</linearGradient>
<clipPath id="clip0_367_2">
<rect width="100" height="100" fill="white"/>
</clipPath>
</defs>
</svg>
